<svg width="368" height="262" viewBox="0 0 367.763 261.5" fill="none" xmlns="http://www.w3.org/2000/svg">
<g id="Vector">
<path d="M71.762 203.924C71.762 201.162 74.0005 198.924 76.762 198.924C79.5234 198.924 81.762 201.162 81.762 203.924V212.924H71.762V203.924Z" fill="#FE8200"/>
<path d="M114.762 203.924C114.762 201.162 117.001 198.924 119.762 198.924C122.523 198.924 124.762 201.162 124.762 203.924V212.924H114.762V203.924Z" fill="#FE8200"/>
<path d="M157.762 203.924C157.762 201.162 160.001 198.924 162.762 198.924C165.523 198.924 167.762 201.162 167.762 203.924V212.924H157.762V203.924Z" fill="#FE8200"/>
<path d="M200.762 203.924C200.762 201.162 203.001 198.924 205.762 198.924C208.523 198.924 210.762 201.162 210.762 203.924V212.924H200.762V203.924Z" fill="#FE8200"/>
<path d="M243.762 203.924C243.762 201.162 246.001 198.924 248.762 198.924C251.523 198.924 253.762 201.162 253.762 203.924V212.924H243.762V203.924Z" fill="#FE8200"/>
<path d="M286.762 203.924C286.762 201.162 289.001 198.924 291.762 198.924C294.523 198.924 296.762 201.162 296.762 203.924V212.924H286.762V203.924Z" fill="#FE8200"/>
<path fill-rule="evenodd" clip-rule="evenodd" d="M172.485 22.9236C172.431 32.174 172.467 41.4246 172.592 50.6746C178.729 50.4676 184.871 50.4405 191.01 50.5935C191.119 41.4746 191.023 32.1742 191.022 23.0398C195.387 24.0193 201.246 26.172 205.607 27.6355L205.592 53.5007C208.122 54.0707 211.003 55.0056 211.262 55.9236C211.52 56.8423 208.942 65.8814 208.214 73.2166C211.044 74.461 217.598 76.4754 218.262 79.3718C219.265 83.7482 216.599 88.6097 211.786 88.4705L210.63 87.4734C206.892 86.9429 203.258 85.88 199.474 85.4685C185.976 83.9765 171.431 83.6523 158.054 86.2263C147.442 88.2683 145.053 90.0214 144.976 77.6853C148.536 75.4568 150.943 74.6194 154.895 73.4519C155.158 66.5809 150.536 56.6404 150.262 56.4236C149.989 56.2081 150.788 55.6902 150.788 55.6902C152.74 54.3292 155.298 53.8499 157.651 53.2029L157.578 27.5818C163.011 25.4014 166.871 24.407 172.485 22.9236ZM169.746 54.2312C168.207 53.7702 168.803 53.9001 167.069 54.1511C162.53 55.0201 153.262 56.0134 152.762 57.0134C154.262 61.0133 154.529 60.5011 155.262 63.9236C155.679 65.8692 156.252 72.7087 157.871 73.0007C162.183 72.1013 166.22 71.1707 170.62 70.7722C170.596 67.0368 171.204 57.0856 169.746 54.2312ZM199.262 53.9226C199.205 53.9094 192.77 52.4274 192.762 52.9226C192.762 53.4225 192.262 68.4148 192.262 69.4226C192.262 70.4226 205.762 72.4226 206.262 71.9226C206.762 71.4146 206.762 56.9223 206.262 55.9226C205.761 54.9263 199.306 53.9295 199.262 53.9226ZM184.48 52.9236C180.288 52.8308 174.652 52.4456 172.262 52.9236V60.9236L172.601 69.9705C176.787 69.735 180.976 69.5526 185.166 69.4246C185.166 69.421 185.165 69.4174 185.165 69.4138C186.676 69.3951 189.491 69.3614 189.762 69.4236C191.052 67.5024 191.436 52.9279 190.437 52.9236H184.48Z" fill="#FE8200"/>
<path d="M180.762 93.9236C183.523 93.9236 185.762 96.1622 185.762 98.9236V106.966C195.326 107.646 202.511 108.733 211.805 111.606C212.893 119.938 213.078 129.327 214.076 137.935V141.424C192.728 135.263 168.813 136.526 147.369 141.17C148.492 131.476 149.009 121.004 149.881 111.153C159.452 108.466 166.192 107.54 175.762 107.127V98.9236C175.762 96.1622 178.001 93.9236 180.762 93.9236Z" fill="#FE8200"/>
<path d="M178.762 1.186C181.204 -0.576488 181.467 -0.123475 183.262 0.923524C186.403 2.66107 185.196 7.07145 185.262 7.12445C189.864 10.8559 206.535 20.5765 208.295 25.7765L207.737 26.468C205.665 26.788 198.747 23.2389 195.526 22.4044C189.691 20.8934 187.264 20.5069 181.204 20.1649C170.803 20.5939 164.03 21.543 155.141 27.026C153.762 25.9235 154.56 26.7565 153.762 25.4235C154.044 21.0695 172.644 10.8869 176.29 7.12445C177.454 5.92351 175.317 4.79599 178.762 1.186Z" fill="#FE8200"/>
<path fill-rule="evenodd" clip-rule="evenodd" d="M145.596 165.771C145.505 170.327 145.101 174.347 144.666 178.866L86.8441 176.076C75.3902 175.532 62.0336 174.719 50.6351 174.782C44.1778 179.227 32.668 186.304 25.7064 190.096L25.6654 216.863C17.212 219.988 8.72468 223.388 0.232791 226.318C0.175227 237.909 0.0813067 249.673 0 261.5H366.715C367.088 252.727 367.848 243.369 367.755 234.677C362.167 231.268 354.71 226.973 349.396 223.308C348.814 215.538 346.762 199.924 346.384 198.068C344.761 196.923 333.264 187.925 332.262 187.923C324.262 186.423 265.847 181.597 232.684 177.859C227.537 177.279 222.035 176.661 216.939 176.357L216.224 166.069L214.762 165.423C196.261 158.559 165.477 159.639 146.682 165.348L145.596 165.771ZM181.762 163.924C179.001 163.924 176.762 166.162 176.762 168.924V177.924H186.762V168.924C186.762 166.162 184.523 163.924 181.762 163.924ZM50.7621 174.923C51.0356 190.503 51.1116 206.086 50.9896 221.671C68.2645 222.271 87.2601 221.78 104.704 221.815L287.469 221.735C300.181 221.735 314.505 222.071 327.137 221.676C328.954 221.596 329.102 221.905 330.289 221.006C330.739 215.445 330.376 198.129 330.116 192.173L143.385 189.036C116.949 188.395 90.5076 188.014 64.0648 187.893C59.9213 183.833 54.6196 179.052 50.7621 174.923Z" fill="#FE8200"/>
</g>
</svg>
